<mxfile host="Electron" agent="Mozilla/5.0 (Windows NT 10.0; Win64; x64) AppleWebKit/537.36 (KHTML, like Gecko) draw.io/24.7.8 Chrome/128.0.6613.36 Electron/32.0.1 Safari/537.36" version="24.7.8">
  <diagram name="Page-1" id="0n_QJ3Uu97ynbLYR1WPe">
    <mxGraphModel dx="757" dy="681" grid="1" gridSize="10" guides="1" tooltips="1" connect="1" arrows="1" fold="1" page="1" pageScale="1" pageWidth="850" pageHeight="1100" math="0" shadow="0">
      <root>
        <mxCell id="0" />
        <mxCell id="1" parent="0" />
        <mxCell id="kfcegb-y5UTw30hLXOhg-1" value="User Application A" style="rounded=0;whiteSpace=wrap;html=1;fontSize=14;" vertex="1" parent="1">
          <mxGeometry x="150" y="120" width="150" height="40" as="geometry" />
        </mxCell>
        <mxCell id="kfcegb-y5UTw30hLXOhg-2" value="" style="endArrow=classic;html=1;rounded=0;exitX=0.5;exitY=1;exitDx=0;exitDy=0;" edge="1" parent="1" source="kfcegb-y5UTw30hLXOhg-1">
          <mxGeometry width="50" height="50" relative="1" as="geometry">
            <mxPoint x="200" y="170" as="sourcePoint" />
            <mxPoint x="225" y="200" as="targetPoint" />
          </mxGeometry>
        </mxCell>
        <mxCell id="kfcegb-y5UTw30hLXOhg-16" value="1" style="edgeLabel;html=1;align=center;verticalAlign=middle;resizable=0;points=[];" vertex="1" connectable="0" parent="kfcegb-y5UTw30hLXOhg-2">
          <mxGeometry x="-0.05" relative="1" as="geometry">
            <mxPoint as="offset" />
          </mxGeometry>
        </mxCell>
        <mxCell id="kfcegb-y5UTw30hLXOhg-3" value="User Application B" style="rounded=0;whiteSpace=wrap;html=1;fontSize=14;" vertex="1" parent="1">
          <mxGeometry x="350" y="120" width="150" height="40" as="geometry" />
        </mxCell>
        <mxCell id="kfcegb-y5UTw30hLXOhg-4" value="" style="endArrow=classic;html=1;rounded=0;exitX=0.5;exitY=1;exitDx=0;exitDy=0;" edge="1" parent="1" source="kfcegb-y5UTw30hLXOhg-3">
          <mxGeometry width="50" height="50" relative="1" as="geometry">
            <mxPoint x="400" y="170" as="sourcePoint" />
            <mxPoint x="425" y="200" as="targetPoint" />
          </mxGeometry>
        </mxCell>
        <mxCell id="kfcegb-y5UTw30hLXOhg-22" value="5" style="edgeLabel;html=1;align=center;verticalAlign=middle;resizable=0;points=[];" vertex="1" connectable="0" parent="kfcegb-y5UTw30hLXOhg-4">
          <mxGeometry x="-0.3259" y="1" relative="1" as="geometry">
            <mxPoint as="offset" />
          </mxGeometry>
        </mxCell>
        <mxCell id="kfcegb-y5UTw30hLXOhg-5" value="socket A" style="rounded=0;whiteSpace=wrap;html=1;fontSize=14;" vertex="1" parent="1">
          <mxGeometry x="170" y="200" width="110" height="40" as="geometry" />
        </mxCell>
        <mxCell id="kfcegb-y5UTw30hLXOhg-6" value="" style="endArrow=classic;html=1;rounded=0;exitX=0.5;exitY=1;exitDx=0;exitDy=0;" edge="1" parent="1" source="kfcegb-y5UTw30hLXOhg-5">
          <mxGeometry width="50" height="50" relative="1" as="geometry">
            <mxPoint x="200" y="270" as="sourcePoint" />
            <mxPoint x="225" y="280" as="targetPoint" />
          </mxGeometry>
        </mxCell>
        <mxCell id="kfcegb-y5UTw30hLXOhg-17" value="2" style="edgeLabel;html=1;align=center;verticalAlign=middle;resizable=0;points=[];" vertex="1" connectable="0" parent="kfcegb-y5UTw30hLXOhg-6">
          <mxGeometry x="0.0701" y="1" relative="1" as="geometry">
            <mxPoint x="-1" y="-1" as="offset" />
          </mxGeometry>
        </mxCell>
        <mxCell id="kfcegb-y5UTw30hLXOhg-7" value="socket B" style="rounded=0;whiteSpace=wrap;html=1;fontSize=14;" vertex="1" parent="1">
          <mxGeometry x="370" y="200" width="110" height="40" as="geometry" />
        </mxCell>
        <mxCell id="kfcegb-y5UTw30hLXOhg-8" value="" style="endArrow=classic;html=1;rounded=0;exitX=0.5;exitY=1;exitDx=0;exitDy=0;" edge="1" parent="1" source="kfcegb-y5UTw30hLXOhg-7">
          <mxGeometry width="50" height="50" relative="1" as="geometry">
            <mxPoint x="400" y="270" as="sourcePoint" />
            <mxPoint x="425" y="281" as="targetPoint" />
          </mxGeometry>
        </mxCell>
        <mxCell id="kfcegb-y5UTw30hLXOhg-23" value="6" style="edgeLabel;html=1;align=center;verticalAlign=middle;resizable=0;points=[];" vertex="1" connectable="0" parent="kfcegb-y5UTw30hLXOhg-8">
          <mxGeometry x="-0.4586" y="-1" relative="1" as="geometry">
            <mxPoint x="1" y="9" as="offset" />
          </mxGeometry>
        </mxCell>
        <mxCell id="kfcegb-y5UTw30hLXOhg-9" value="Network Protocol Stack" style="rounded=0;whiteSpace=wrap;html=1;fontSize=14;" vertex="1" parent="1">
          <mxGeometry x="190" y="280" width="280" height="40" as="geometry" />
        </mxCell>
        <mxCell id="kfcegb-y5UTw30hLXOhg-10" value="" style="endArrow=classic;html=1;rounded=0;" edge="1" parent="1">
          <mxGeometry width="50" height="50" relative="1" as="geometry">
            <mxPoint x="246" y="319" as="sourcePoint" />
            <mxPoint x="245" y="363" as="targetPoint" />
          </mxGeometry>
        </mxCell>
        <mxCell id="kfcegb-y5UTw30hLXOhg-24" value="7" style="edgeLabel;html=1;align=center;verticalAlign=middle;resizable=0;points=[];" vertex="1" connectable="0" parent="kfcegb-y5UTw30hLXOhg-10">
          <mxGeometry x="-0.5022" y="-1" relative="1" as="geometry">
            <mxPoint x="2" y="8" as="offset" />
          </mxGeometry>
        </mxCell>
        <mxCell id="kfcegb-y5UTw30hLXOhg-11" value="eth0" style="rounded=0;whiteSpace=wrap;html=1;fontSize=14;" vertex="1" parent="1">
          <mxGeometry x="172" y="364" width="150" height="40" as="geometry" />
        </mxCell>
        <mxCell id="kfcegb-y5UTw30hLXOhg-12" value="" style="endArrow=classic;html=1;rounded=0;exitX=0.5;exitY=1;exitDx=0;exitDy=0;" edge="1" parent="1" source="kfcegb-y5UTw30hLXOhg-11">
          <mxGeometry width="50" height="50" relative="1" as="geometry">
            <mxPoint x="180" y="500" as="sourcePoint" />
            <mxPoint x="247" y="440" as="targetPoint" />
          </mxGeometry>
        </mxCell>
        <mxCell id="kfcegb-y5UTw30hLXOhg-25" value="8" style="edgeLabel;html=1;align=center;verticalAlign=middle;resizable=0;points=[];" vertex="1" connectable="0" parent="kfcegb-y5UTw30hLXOhg-12">
          <mxGeometry x="-0.3228" y="1" relative="1" as="geometry">
            <mxPoint as="offset" />
          </mxGeometry>
        </mxCell>
        <mxCell id="kfcegb-y5UTw30hLXOhg-13" value="tun0" style="rounded=0;whiteSpace=wrap;html=1;fontSize=14;" vertex="1" parent="1">
          <mxGeometry x="349" y="363" width="150" height="40" as="geometry" />
        </mxCell>
        <mxCell id="kfcegb-y5UTw30hLXOhg-15" value="" style="endArrow=classic;html=1;rounded=0;exitX=0.25;exitY=1;exitDx=0;exitDy=0;" edge="1" parent="1">
          <mxGeometry width="50" height="50" relative="1" as="geometry">
            <mxPoint x="426" y="320" as="sourcePoint" />
            <mxPoint x="425" y="364" as="targetPoint" />
          </mxGeometry>
        </mxCell>
        <mxCell id="kfcegb-y5UTw30hLXOhg-18" value="3" style="edgeLabel;html=1;align=center;verticalAlign=middle;resizable=0;points=[];" vertex="1" connectable="0" parent="kfcegb-y5UTw30hLXOhg-15">
          <mxGeometry x="-0.3793" relative="1" as="geometry">
            <mxPoint x="-1" y="6" as="offset" />
          </mxGeometry>
        </mxCell>
        <mxCell id="kfcegb-y5UTw30hLXOhg-20" value="" style="edgeStyle=segmentEdgeStyle;endArrow=classic;html=1;curved=0;rounded=0;endSize=8;startSize=8;exitX=0.5;exitY=1;exitDx=0;exitDy=0;entryX=1;entryY=0.5;entryDx=0;entryDy=0;" edge="1" parent="1" source="kfcegb-y5UTw30hLXOhg-13" target="kfcegb-y5UTw30hLXOhg-3">
          <mxGeometry width="50" height="50" relative="1" as="geometry">
            <mxPoint x="430" y="470" as="sourcePoint" />
            <mxPoint x="480" y="420" as="targetPoint" />
            <Array as="points">
              <mxPoint x="425" y="403" />
              <mxPoint x="425" y="430" />
              <mxPoint x="520" y="430" />
              <mxPoint x="520" y="140" />
            </Array>
          </mxGeometry>
        </mxCell>
        <mxCell id="kfcegb-y5UTw30hLXOhg-21" value="4" style="edgeLabel;html=1;align=center;verticalAlign=middle;resizable=0;points=[];" vertex="1" connectable="0" parent="kfcegb-y5UTw30hLXOhg-20">
          <mxGeometry x="0.2103" y="-1" relative="1" as="geometry">
            <mxPoint as="offset" />
          </mxGeometry>
        </mxCell>
        <mxCell id="kfcegb-y5UTw30hLXOhg-26" value="192.168.3.11" style="text;html=1;align=center;verticalAlign=middle;whiteSpace=wrap;rounded=0;" vertex="1" parent="1">
          <mxGeometry x="430" y="403" width="80" height="30" as="geometry" />
        </mxCell>
        <mxCell id="kfcegb-y5UTw30hLXOhg-27" value="10.32.0.11" style="text;html=1;align=center;verticalAlign=middle;whiteSpace=wrap;rounded=0;" vertex="1" parent="1">
          <mxGeometry x="160" y="404" width="80" height="30" as="geometry" />
        </mxCell>
        <mxCell id="kfcegb-y5UTw30hLXOhg-28" value="Physical Network" style="text;html=1;align=center;verticalAlign=middle;whiteSpace=wrap;rounded=0;" vertex="1" parent="1">
          <mxGeometry x="190" y="443" width="113" height="30" as="geometry" />
        </mxCell>
      </root>
    </mxGraphModel>
  </diagram>
</mxfile>
